<?xml version="1.0" standalone="no"?><svg xmlns="http://www.w3.org/2000/svg" viewBox="0 0 1440 320"><path fill="#0099ff" fill-opacity="0.6" d="M0,192L34.3,170.7C68.6,149,137,107,206,112C274.3,117,343,171,411,202.7C480,235,549,245,617,234.7C685.7,224,754,192,823,181.3C891.4,171,960,181,1029,154.7C1097.1,128,1166,64,1234,85.3C1302.9,107,1371,213,1406,266.7L1440,320L1440,0L1405.7,0C1371.4,0,1303,0,1234,0C1165.7,0,1097,0,1029,0C960,0,891,0,823,0C754.3,0,686,0,617,0C548.6,0,480,0,411,0C342.9,0,274,0,206,0C137.1,0,69,0,34,0L0,0Z"></path></svg>